<?xml version="1.0" encoding="UTF-8"?>
<svg id="Layer_1" data-name="Layer 1" xmlns="http://www.w3.org/2000/svg" viewBox="0 0 154.18 153.06">
  <defs>
    <style>
      .cls-1 {
        fill: #8d081b;
      }
    </style>
  </defs>
  <path class="cls-1" d="M134.63,98.2c16.13-19.04,15.9-45.33,3.97-66.55-7.85-13.97-20.32-24.38-37.44-31.24-.92-.37-1.63-.48-2.13-.37-.6.16-.73.96-.21,1.31,24.5,16.01,35.99,48.31,22.37,75.31-10.83,21.45-28.19,30.16-52.07,26.15-.89-.16-1.4.99-.71,1.56,21.54,17.87,48.38,14.89,66.22-6.17Z"/>
  <path class="cls-1" d="M1.13,57.34C19.53,28.74,59.12,15.55,87.93,37.18c15.02,11.29,20.21,28.12,16.17,45.95-.18.83.73,1.47,1.45.99,2.13-1.45,4.04-3.72,5.69-6.77,10.92-20.16,4.34-47.44-14.2-60.42C57.21-10.9,13.06,14.65.03,56.84c-.09.3.05.6.32.73.28.11.62.02.78-.23Z"/>
  <path class="cls-1" d="M59.07,50.48c8.26-3.44,16.63-4.13,25.12-2.06.73.18,1.31-.67.85-1.26-2-2.68-4.66-4.86-7.98-6.56-19.41-9.89-41.96-3.51-55.63,13.03-10.21,12.32-14.75,26.06-13.05,42.37,2.91,27.89,22.14,49.41,49.55,57.03.78.23,1.38-.73.83-1.33-.02-.02-2.48-1.77-7.36-5.28-11.33-8.1-19.2-23.63-21.86-37.05-4.7-23.88,6.65-49.32,29.55-58.88Z"/>
  <path class="cls-1" d="M153.05,95.77c-15.8,23.86-45.97,38.77-73.45,26.1-22.64-10.41-32.73-27.99-30.28-52.71.09-.89-1.08-1.33-1.61-.6-7.04,9.57-9.93,20.19-8.72,31.88,4.95,47.02,65.03,60.28,95.38,29.02,9.11-9.38,15.69-20.44,19.77-33.19.09-.3-.05-.6-.32-.73-.28-.11-.62-.02-.78.23Z"/>
</svg>